<svg width="173" height="59" viewBox="0 0 173 59" fill="none" xmlns="http://www.w3.org/2000/svg">
<rect x="0.5" y="0.5" width="172" height="58" rx="29" stroke="#FFFCB1"/>
<path d="M46.44 23.4V36H45.18V24.588H38.7V36H37.44V23.4H46.44ZM56.6848 34.866C55.7728 35.766 54.6568 36.216 53.3368 36.216C52.0168 36.216 50.8948 35.766 49.9708 34.866C49.0588 33.954 48.6028 32.832 48.6028 31.5C48.6028 30.168 49.0588 29.052 49.9708 28.152C50.8948 27.24 52.0168 26.784 53.3368 26.784C54.6568 26.784 55.7728 27.24 56.6848 28.152C57.6088 29.052 58.0708 30.168 58.0708 31.5C58.0708 32.832 57.6088 33.954 56.6848 34.866ZM50.8168 34.038C51.5008 34.722 52.3408 35.064 53.3368 35.064C54.3328 35.064 55.1728 34.722 55.8568 34.038C56.5408 33.342 56.8828 32.496 56.8828 31.5C56.8828 30.504 56.5408 29.664 55.8568 28.98C55.1728 28.284 54.3328 27.936 53.3368 27.936C52.3408 27.936 51.5008 28.284 50.8168 28.98C50.1328 29.664 49.7908 30.504 49.7908 31.5C49.7908 32.496 50.1328 33.342 50.8168 34.038ZM64.2528 36.216C62.8968 36.216 61.7688 35.766 60.8688 34.866C59.9688 33.954 59.5188 32.832 59.5188 31.5C59.5188 30.168 59.9688 29.052 60.8688 28.152C61.7688 27.24 62.8968 26.784 64.2528 26.784C65.1408 26.784 65.9388 27 66.6468 27.432C67.3548 27.852 67.8708 28.422 68.1948 29.142L67.2228 29.7C66.9828 29.16 66.5928 28.734 66.0528 28.422C65.5248 28.098 64.9248 27.936 64.2528 27.936C63.2568 27.936 62.4168 28.284 61.7328 28.98C61.0488 29.664 60.7068 30.504 60.7068 31.5C60.7068 32.496 61.0488 33.342 61.7328 34.038C62.4168 34.722 63.2568 35.064 64.2528 35.064C64.9248 35.064 65.5248 34.908 66.0528 34.596C66.5808 34.272 66.9948 33.84 67.2948 33.3L68.2848 33.876C67.9128 34.596 67.3668 35.166 66.6468 35.586C65.9268 36.006 65.1288 36.216 64.2528 36.216ZM78.8105 27V36H77.6225V28.818L74.4725 33.93H74.3285L71.1785 28.818V36H69.9905V27H71.3585L74.4005 31.932L77.4425 27H78.8105ZM88.8704 34.866C87.9584 35.766 86.8424 36.216 85.5224 36.216C84.2024 36.216 83.0804 35.766 82.1564 34.866C81.2444 33.954 80.7884 32.832 80.7884 31.5C80.7884 30.168 81.2444 29.052 82.1564 28.152C83.0804 27.24 84.2024 26.784 85.5224 26.784C86.8424 26.784 87.9584 27.24 88.8704 28.152C89.7944 29.052 90.2564 30.168 90.2564 31.5C90.2564 32.832 89.7944 33.954 88.8704 34.866ZM83.0024 34.038C83.6864 34.722 84.5264 35.064 85.5224 35.064C86.5184 35.064 87.3584 34.722 88.0424 34.038C88.7264 33.342 89.0684 32.496 89.0684 31.5C89.0684 30.504 88.7264 29.664 88.0424 28.98C87.3584 28.284 86.5184 27.936 85.5224 27.936C84.5264 27.936 83.6864 28.284 83.0024 28.98C82.3184 29.664 81.9764 30.504 81.9764 31.5C81.9764 32.496 82.3184 33.342 83.0024 34.038ZM98.3728 27V28.152H95.1868V36H93.9988V28.152H90.8128V27H98.3728ZM104.645 26.784C105.929 26.784 107.021 27.24 107.921 28.152C108.833 29.064 109.289 30.18 109.289 31.5C109.289 32.82 108.833 33.936 107.921 34.848C107.021 35.76 105.929 36.216 104.645 36.216C103.049 36.216 101.837 35.556 101.009 34.236V39.6H99.8205V27H101.009V28.764C101.837 27.444 103.049 26.784 104.645 26.784ZM102.035 34.038C102.719 34.722 103.559 35.064 104.555 35.064C105.551 35.064 106.391 34.722 107.075 34.038C107.759 33.342 108.101 32.496 108.101 31.5C108.101 30.504 107.759 29.664 107.075 28.98C106.391 28.284 105.551 27.936 104.555 27.936C103.559 27.936 102.719 28.284 102.035 28.98C101.351 29.664 101.009 30.504 101.009 31.5C101.009 32.496 101.351 33.342 102.035 34.038ZM115.422 26.784C116.754 26.784 117.828 27.258 118.644 28.206C119.472 29.142 119.886 30.252 119.886 31.536C119.886 31.668 119.874 31.854 119.85 32.094H111.948C112.068 33.006 112.452 33.732 113.1 34.272C113.76 34.8 114.57 35.064 115.53 35.064C116.214 35.064 116.802 34.926 117.294 34.65C117.798 34.362 118.176 33.99 118.428 33.534L119.472 34.146C119.076 34.782 118.536 35.286 117.852 35.658C117.168 36.03 116.388 36.216 115.512 36.216C114.096 36.216 112.944 35.772 112.056 34.884C111.168 33.996 110.724 32.868 110.724 31.5C110.724 30.156 111.162 29.034 112.038 28.134C112.914 27.234 114.042 26.784 115.422 26.784ZM115.422 27.936C114.486 27.936 113.7 28.218 113.064 28.782C112.44 29.334 112.068 30.054 111.948 30.942H118.662C118.542 29.994 118.176 29.256 117.564 28.728C116.952 28.2 116.238 27.936 115.422 27.936ZM127.904 27V28.152H124.718V36H123.53V28.152H120.344V27H127.904ZM133.006 30.42C133.846 30.42 134.554 30.684 135.13 31.212C135.718 31.728 136.012 32.394 136.012 33.21C136.012 34.026 135.718 34.698 135.13 35.226C134.554 35.742 133.846 36 133.006 36H129.352V27H130.54V30.42H133.006ZM133.006 34.848C133.51 34.848 133.936 34.698 134.284 34.398C134.644 34.098 134.824 33.702 134.824 33.21C134.824 32.718 134.644 32.322 134.284 32.022C133.936 31.722 133.51 31.572 133.006 31.572H130.54V34.848H133.006Z" fill="#FFFCB1"/>
</svg>
