<svg width="108" height="108" viewBox="0 0 108 108" fill="none" xmlns="http://www.w3.org/2000/svg">
<circle cx="54" cy="54" r="54" fill="#FFFCB1"/>
<path d="M25.36 48.4V49.588H21.49V61H20.23V49.588H16.36V48.4H25.36ZM29.5215 51.784C30.8535 51.784 31.9275 52.258 32.7435 53.206C33.5715 54.142 33.9855 55.252 33.9855 56.536C33.9855 56.668 33.9735 56.854 33.9495 57.094H26.0475C26.1675 58.006 26.5515 58.732 27.1995 59.272C27.8595 59.8 28.6695 60.064 29.6295 60.064C30.3135 60.064 30.9015 59.926 31.3935 59.65C31.8975 59.362 32.2755 58.99 32.5275 58.534L33.5715 59.146C33.1755 59.782 32.6355 60.286 31.9515 60.658C31.2675 61.03 30.4875 61.216 29.6115 61.216C28.1955 61.216 27.0435 60.772 26.1555 59.884C25.2675 58.996 24.8235 57.868 24.8235 56.5C24.8235 55.156 25.2615 54.034 26.1375 53.134C27.0135 52.234 28.1415 51.784 29.5215 51.784ZM29.5215 52.936C28.5855 52.936 27.7995 53.218 27.1635 53.782C26.5395 54.334 26.1675 55.054 26.0475 55.942H32.7615C32.6415 54.994 32.2755 54.256 31.6635 53.728C31.0515 53.2 30.3375 52.936 29.5215 52.936ZM35.8752 61V47.86H37.0632V61H35.8752ZM43.7422 51.784C45.0742 51.784 46.1482 52.258 46.9642 53.206C47.7922 54.142 48.2062 55.252 48.2062 56.536C48.2062 56.668 48.1942 56.854 48.1702 57.094H40.2682C40.3882 58.006 40.7722 58.732 41.4202 59.272C42.0802 59.8 42.8902 60.064 43.8502 60.064C44.5342 60.064 45.1222 59.926 45.6142 59.65C46.1182 59.362 46.4962 58.99 46.7482 58.534L47.7922 59.146C47.3962 59.782 46.8562 60.286 46.1722 60.658C45.4882 61.03 44.7082 61.216 43.8322 61.216C42.4162 61.216 41.2642 60.772 40.3762 59.884C39.4882 58.996 39.0442 57.868 39.0442 56.5C39.0442 55.156 39.4822 54.034 40.3582 53.134C41.2342 52.234 42.3622 51.784 43.7422 51.784ZM43.7422 52.936C42.8062 52.936 42.0202 53.218 41.3842 53.782C40.7602 54.334 40.3882 55.054 40.2682 55.942H46.9822C46.8622 54.994 46.4962 54.256 45.8842 53.728C45.2722 53.2 44.5582 52.936 43.7422 52.936ZM57.8359 52H59.0239V60.64C59.0239 61.936 58.5799 62.956 57.6919 63.7C56.8039 64.444 55.7419 64.816 54.5059 64.816C52.3939 64.816 50.9719 64.084 50.2399 62.62L51.2839 62.026C51.8239 63.118 52.8979 63.664 54.5059 63.664C55.5379 63.664 56.3479 63.388 56.9359 62.836C57.5359 62.296 57.8359 61.564 57.8359 60.64V59.236C57.0079 60.556 55.7959 61.216 54.1999 61.216C52.9159 61.216 51.8179 60.76 50.9059 59.848C50.0059 58.936 49.5559 57.82 49.5559 56.5C49.5559 55.18 50.0059 54.064 50.9059 53.152C51.8179 52.24 52.9159 51.784 54.1999 51.784C55.7959 51.784 57.0079 52.444 57.8359 53.764V52ZM51.7699 59.038C52.4539 59.722 53.2939 60.064 54.2899 60.064C55.2859 60.064 56.1259 59.722 56.8099 59.038C57.4939 58.342 57.8359 57.496 57.8359 56.5C57.8359 55.504 57.4939 54.664 56.8099 53.98C56.1259 53.284 55.2859 52.936 54.2899 52.936C53.2939 52.936 52.4539 53.284 51.7699 53.98C51.0859 54.664 50.7439 55.504 50.7439 56.5C50.7439 57.496 51.0859 58.342 51.7699 59.038ZM62.7273 53.494C63.2793 52.402 64.2273 51.856 65.5713 51.856V53.008C64.7553 53.008 64.0773 53.248 63.5373 53.728C62.9973 54.208 62.7273 54.964 62.7273 55.996V61H61.5393V52H62.7273V53.494ZM74.3945 52H75.5825V61H74.3945V59.236C73.5665 60.556 72.3545 61.216 70.7585 61.216C69.4745 61.216 68.3765 60.76 67.4645 59.848C66.5645 58.936 66.1145 57.82 66.1145 56.5C66.1145 55.18 66.5645 54.064 67.4645 53.152C68.3765 52.24 69.4745 51.784 70.7585 51.784C72.3545 51.784 73.5665 52.444 74.3945 53.764V52ZM68.3285 59.038C69.0125 59.722 69.8525 60.064 70.8485 60.064C71.8445 60.064 72.6845 59.722 73.3685 59.038C74.0525 58.342 74.3945 57.496 74.3945 56.5C74.3945 55.504 74.0525 54.664 73.3685 53.98C72.6845 53.284 71.8445 52.936 70.8485 52.936C69.8525 52.936 69.0125 53.284 68.3285 53.98C67.6445 54.664 67.3025 55.504 67.3025 56.5C67.3025 57.496 67.6445 58.342 68.3285 59.038ZM87.6919 51.784C88.6999 51.784 89.5099 52.108 90.1219 52.756C90.7459 53.404 91.0579 54.28 91.0579 55.384V61H89.8699V55.384C89.8699 54.604 89.6659 54.004 89.2579 53.584C88.8619 53.152 88.3339 52.936 87.6739 52.936C86.9299 52.936 86.3239 53.188 85.8559 53.692C85.3999 54.184 85.1719 54.958 85.1719 56.014V61H83.9839V55.384C83.9839 54.592 83.7919 53.986 83.4079 53.566C83.0359 53.146 82.5259 52.936 81.8779 52.936C81.1579 52.936 80.5459 53.188 80.0419 53.692C79.5379 54.196 79.2859 54.97 79.2859 56.014V61H78.0979V52H79.2859V53.314C79.9339 52.294 80.8519 51.784 82.0399 51.784C83.3359 51.784 84.2479 52.33 84.7759 53.422C85.4239 52.33 86.3959 51.784 87.6919 51.784Z" fill="#44455C"/>
</svg>
